<?xml version="1.0" encoding="utf-8"?>
<!-- Generator: Adobe Illustrator 21.0.0, SVG Export Plug-In . SVG Version: 6.00 Build 0)  -->
<svg version="1.1" id="Camada_1" xmlns="http://www.w3.org/2000/svg" xmlns:xlink="http://www.w3.org/1999/xlink" x="0px" y="0px"
	 viewBox="0 0 200 200" style="enable-background:new 0 0 200 200;" xml:space="preserve">
<style type="text/css">
	.st0{fill:#FFFFFF;}
	.st1{fill:#65C1C3;}
	.st2{fill:#444444;}
</style>
<g>
	<polygon class="st0" points="142.8,131.1 81.9,126.3 75.2,55.9 139.9,63.1 	"/>
	<path class="st1" d="M104,19.8L33.9,89.9l90.3,90.3l70.1-70.1L104,19.8z M98.5,107.9c-3.5,3.5-9.3,3.5-12.8,0
		c-3.5-3.5-3.5-9.3,0-12.8c3.5-3.5,9.3-3.5,12.8,0C102.1,98.6,102.1,104.4,98.5,107.9z M107.2,73.6c3.5-3.5,9.3-3.5,12.8,0
		c3.5,3.5,3.5,9.3,0,12.8c-3.5,3.5-9.3,3.5-12.8,0C103.7,82.9,103.7,77.1,107.2,73.6z M134.9,108.8c-0.4,0.5-0.7,1-1.1,1.5
		c-0.3,0.3-0.5,0.7-0.8,1l-0.8,0.9c-0.5,0.6-1.1,1.2-1.7,1.8c-2.3,2.4-4.8,4.6-7.6,6.4c-2.7,1.8-5.7,3.2-8.7,4.3
		c-3,1.1-6.1,1.7-9.2,2.1l0-0.4c3-0.8,5.9-1.8,8.7-3.2c2.8-1.3,5.4-3,7.8-4.9c2.4-1.9,4.6-4.1,6.5-6.5c0.5-0.6,0.9-1.2,1.3-1.8
		l0.6-0.9c0.2-0.3,0.4-0.6,0.6-1c0.2-0.2,0.3-0.5,0.5-0.7l-2.1-0.7L140,91.6l-2.4,18.2L134.9,108.8z"/>
	<polygon class="st2" points="84.4,33.8 73.9,23.3 5.7,91.5 94.2,180 106.3,167.9 28.3,89.9 	"/>
</g>
</svg>
