<?xml version="1.0" encoding="utf-8"?>
<!-- Generator: Adobe Illustrator 21.0.0, SVG Export Plug-In . SVG Version: 6.00 Build 0)  -->
<svg version="1.1" id="Camada_1" xmlns="http://www.w3.org/2000/svg" xmlns:xlink="http://www.w3.org/1999/xlink" x="0px" y="0px"
	 viewBox="0 0 914 200" style="enable-background:new 0 0 914 200;" xml:space="preserve">
<style type="text/css">
	.st0{fill:#444444;}
	.st1{fill:#fe9700;}
	.st2{fill:#FFFFFF;}
</style>
<g>
	<path class="st0" d="M262.1,131.9H234l-4.9,15.9h-22l31.3-85.3h19.3l31.5,85.3h-22.1L262.1,131.9z M238.9,116h18.3L248,86.4
		L238.9,116z"/>
	<path class="st0" d="M318.9,133.8c2.8,0,4.9-0.8,6.4-2.3c1.5-1.5,2.3-3.6,2.2-6.3h18.5c0,3.6-0.7,6.8-2,9.8
		c-1.3,2.9-3.2,5.4-5.6,7.5c-2.4,2.1-5.2,3.7-8.5,4.8s-6.8,1.7-10.6,1.7c-5,0-9.3-0.8-13-2.5c-3.7-1.6-6.8-3.9-9.3-6.8
		c-2.5-2.9-4.3-6.3-5.6-10.2c-1.3-3.9-1.9-8.2-1.9-12.7v-1.3c0-4.6,0.6-8.8,1.9-12.8c1.2-3.9,3.1-7.4,5.6-10.2s5.5-5.1,9.2-6.8
		s8-2.5,12.9-2.5c4,0,7.6,0.6,10.9,1.7c3.3,1.1,6.1,2.8,8.5,5c2.4,2.2,4.2,4.8,5.5,8c1.3,3.2,2,6.8,2,10.8h-18.5
		c0-1.4-0.2-2.7-0.5-4c-0.3-1.2-0.9-2.3-1.6-3.3c-0.7-0.9-1.7-1.6-2.8-2.2s-2.4-0.8-4-0.8c-2,0-3.7,0.5-4.9,1.4
		c-1.2,0.9-2.2,2.1-2.8,3.7c-0.7,1.5-1.1,3.4-1.3,5.4c-0.2,2.1-0.3,4.2-0.3,6.5v1.3c0,2.3,0.1,4.5,0.3,6.6c0.2,2.1,0.7,3.8,1.3,5.4
		c0.7,1.5,1.6,2.8,2.9,3.6C315.2,133.3,316.9,133.8,318.9,133.8z M327.5,147.2l-0.6,3.6c1.1,0.2,2.1,0.5,3.2,1
		c1.1,0.4,2,1.1,2.8,1.9c0.8,0.8,1.5,1.8,2,3c0.5,1.2,0.8,2.6,0.8,4.3c0,2.2-0.5,4.2-1.4,5.9c-0.9,1.8-2.3,3.3-4.2,4.6
		c-1.8,1.3-4.1,2.3-6.9,3c-2.7,0.7-5.9,1.1-9.5,1.1l-0.4-10.9c1.5,0,2.8-0.3,3.7-1c1-0.7,1.4-1.8,1.4-3.5c0-1.5-0.6-2.5-1.8-3.1
		s-3.2-1-6-1.2l1.8-8.6H327.5z"/>
	<path class="st0" d="M349.6,115.5c0-4.6,0.7-8.9,2-12.8c1.3-3.9,3.3-7.4,5.9-10.3c2.6-2.9,5.8-5.1,9.6-6.8
		c3.8-1.6,8.2-2.4,13.1-2.4c5,0,9.4,0.8,13.2,2.4c3.8,1.6,7,3.9,9.6,6.8c2.6,2.9,4.5,6.3,5.9,10.3c1.3,3.9,2,8.2,2,12.8v1.2
		c0,4.6-0.7,8.9-2,12.9c-1.3,3.9-3.3,7.3-5.8,10.2s-5.8,5.1-9.6,6.7s-8.2,2.4-13.2,2.4c-5,0-9.3-0.8-13.2-2.4s-7-3.9-9.6-6.7
		c-2.6-2.9-4.6-6.3-5.9-10.2c-1.3-3.9-2-8.2-2-12.9V115.5z M402.9,58.3c0,2.1-0.3,4.2-1,6.1c-0.7,1.9-1.6,3.6-2.8,5.1
		c-1.2,1.5-2.6,2.6-4.3,3.5c-1.7,0.9-3.5,1.3-5.5,1.3c-1.8,0-3.4-0.3-4.8-0.8c-1.3-0.5-2.6-1.1-3.8-1.7c-1.2-0.6-2.4-1.2-3.6-1.7
		c-1.2-0.5-2.6-0.8-4-0.8c-1.3,0-2.3,0.4-3.2,1.3c-0.9,0.9-1.3,2.2-1.3,4l-11-0.6c0-2.1,0.3-4.1,1-6c0.7-1.9,1.6-3.6,2.8-5.1
		c1.2-1.5,2.6-2.7,4.2-3.5s3.5-1.3,5.4-1.3c1.5,0,3,0.3,4.3,0.8c1.3,0.5,2.7,1.1,4,1.7c1.3,0.6,2.6,1.2,3.9,1.7
		c1.3,0.5,2.7,0.8,4.1,0.8c1.2,0,2.3-0.4,3.2-1.3c0.9-0.9,1.3-2.2,1.3-4L402.9,58.3z M369.3,116.8c0,2.4,0.2,4.6,0.5,6.7
		c0.3,2.1,0.9,3.9,1.8,5.4c0.8,1.5,2,2.7,3.4,3.6s3.2,1.3,5.3,1.3c2.1,0,3.8-0.4,5.2-1.3c1.4-0.9,2.5-2.1,3.3-3.6
		c0.8-1.5,1.4-3.3,1.8-5.4c0.4-2.1,0.5-4.3,0.5-6.7v-1.2c0-2.3-0.2-4.5-0.5-6.6c-0.3-2.1-0.9-3.9-1.8-5.4c-0.8-1.5-2-2.8-3.4-3.7
		c-1.4-0.9-3.2-1.4-5.3-1.4c-2.1,0-3.8,0.5-5.2,1.4c-1.4,0.9-2.5,2.1-3.3,3.7c-0.8,1.5-1.4,3.4-1.8,5.4c-0.4,2.1-0.5,4.3-0.5,6.6
		V116.8z"/>
	<path class="st0" d="M447.7,149c-5.2,0-9.8-0.8-13.8-2.5c-4.1-1.6-7.5-3.9-10.3-6.7c-2.8-2.8-4.9-6.1-6.4-9.8
		c-1.5-3.7-2.2-7.7-2.2-11.8V116c0-4.6,0.6-8.9,1.9-12.9c1.3-4,3.2-7.5,5.7-10.4c2.6-2.9,5.7-5.2,9.6-6.9c3.8-1.7,8.3-2.5,13.3-2.5
		c4.5,0,8.5,0.7,12.1,2.2c3.6,1.4,6.6,3.5,9.1,6.2c2.5,2.7,4.4,6,5.7,9.8c1.3,3.8,2,8.1,2,12.9v8h-39.3c0.7,3.6,2.2,6.3,4.6,8.4
		c2.4,2,5.5,3,9.3,3c2.7,0,5.3-0.5,7.9-1.5c2.6-1,4.8-2.7,6.7-5l9,10.7c-1,1.4-2.3,2.8-3.9,4.1c-1.6,1.3-3.4,2.5-5.5,3.5
		c-2.1,1-4.5,1.9-7.1,2.5C453.6,148.7,450.8,149,447.7,149z M445.5,98.5c-1.7,0-3.1,0.3-4.3,0.9c-1.2,0.6-2.2,1.4-3,2.4
		c-0.8,1-1.4,2.2-1.9,3.6s-0.8,2.9-1.1,4.6h19.9v-1.5c0.1-3.2-0.7-5.6-2.4-7.4C451,99.4,448.6,98.5,445.5,98.5z"/>
	<path class="st0" d="M513.2,130c0-0.8-0.2-1.5-0.6-2.2c-0.4-0.6-1-1.2-2-1.8c-0.9-0.6-2.2-1.1-3.8-1.6c-1.6-0.5-3.6-1-6.1-1.6
		c-3.1-0.7-6-1.5-8.7-2.6c-2.7-1.1-5.1-2.4-7.1-4c-2-1.6-3.6-3.4-4.7-5.6c-1.2-2.1-1.7-4.6-1.7-7.4c0-2.7,0.6-5.3,1.7-7.7
		c1.2-2.4,2.8-4.6,5.1-6.4c2.2-1.8,5-3.3,8.2-4.4c3.2-1.1,6.9-1.6,11.1-1.6c4.3,0,8.1,0.5,11.5,1.5c3.4,1,6.4,2.4,8.8,4.2
		s4.2,4,5.5,6.5s1.9,5.3,1.9,8.3h-19.8c0-2.4-0.6-4.3-1.8-5.6c-1.2-1.3-3.3-2-6.2-2c-1,0-2,0.1-2.8,0.4s-1.7,0.7-2.3,1.2
		c-0.7,0.5-1.2,1.2-1.6,1.9c-0.4,0.7-0.6,1.6-0.6,2.5c0,1.7,0.8,3.1,2.5,4.2c1.7,1.1,4.3,2,8.1,2.7c3.2,0.6,6.3,1.3,9.2,2.3
		c2.9,0.9,5.6,2.1,7.8,3.7c2.3,1.5,4.1,3.5,5.4,5.8c1.3,2.3,2,5.1,2,8.5c0,2.8-0.6,5.4-1.9,7.8c-1.3,2.4-3.1,4.4-5.5,6.2
		c-2.4,1.7-5.3,3.1-8.7,4.1s-7.2,1.5-11.5,1.5c-4.6,0-8.6-0.6-12.1-1.9c-3.5-1.3-6.4-3-8.8-5c-2.4-2.1-4.2-4.4-5.4-6.9
		c-1.2-2.6-1.8-5.1-1.8-7.6h18.5c0.1,2.9,1.1,5.1,2.9,6.4s4.3,2,7.2,2c2.7,0,4.7-0.5,6.1-1.6C512.5,133.2,513.2,131.8,513.2,130z"/>
</g>
<g>
	<path class="st1" d="M603.6,78.4H578v69.4h-20.6V78.4h-25.1V62.5h71.3V78.4z"/>
	<path class="st1" d="M643.5,102.3c-0.4,0-0.9-0.1-1.4-0.1c-0.6-0.1-1.2-0.1-1.8-0.1c-0.6,0-1.2-0.1-1.8-0.1c-0.6,0-1.1-0.1-1.5-0.1
		c-3.2,0-5.7,0.5-7.7,1.4c-2,1-3.4,2.4-4.3,4.4v40.1h-19.7V84.4h18.5l0.6,8.1c1.6-2.9,3.5-5.2,5.8-6.9c2.3-1.6,5-2.5,8.1-2.5
		c1,0,1.9,0.1,2.9,0.2c1,0.1,1.8,0.3,2.6,0.5L643.5,102.3z"/>
	<path class="st1" d="M682.2,147.8c-0.4-0.8-0.8-1.6-1.1-2.6c-0.3-1-0.6-2-0.8-3.1c-1.5,1.9-3.5,3.5-5.9,4.9c-2.4,1.3-5.5,2-9.3,2
		c-2.9,0-5.7-0.5-8.3-1.4c-2.6-0.9-4.9-2.2-6.8-3.9c-2-1.7-3.5-3.7-4.7-6c-1.2-2.3-1.7-4.9-1.7-7.7c0-3.3,0.6-6.2,1.8-8.8
		c1.2-2.6,3-4.8,5.4-6.5c2.4-1.8,5.5-3.1,9.3-4.1c3.7-1,8.2-1.4,13.3-1.4h6.1v-3.3c0-2.7-0.6-4.8-1.8-6.4c-1.2-1.6-3.1-2.3-5.8-2.3
		c-2.3,0-4,0.6-5.2,1.7c-1.2,1.1-1.8,2.9-1.8,5.2h-19.7c0-2.9,0.7-5.7,2-8.2c1.3-2.5,3.2-4.7,5.6-6.6c2.4-1.8,5.3-3.3,8.8-4.3
		c3.4-1.1,7.2-1.6,11.5-1.6c3.8,0,7.3,0.5,10.5,1.4s6,2.4,8.3,4.2c2.3,1.9,4.2,4.3,5.5,7.1c1.3,2.8,2,6.1,2,9.9v26
		c0,2.1,0.1,3.9,0.2,5.4s0.3,2.9,0.5,4c0.2,1.2,0.5,2.2,0.8,3.1c0.3,0.9,0.7,1.7,1.1,2.5v1H682.2z M669.8,134.9
		c2.5,0,4.5-0.5,6.1-1.6c1.6-1.1,2.8-2.2,3.5-3.6v-10.1h-6.2c-1.8,0-3.4,0.3-4.7,0.8c-1.3,0.5-2.3,1.2-3,2.1c-0.8,0.9-1.3,1.8-1.6,3
		c-0.3,1.1-0.5,2.3-0.5,3.5c0,1.8,0.6,3.3,1.8,4.4C666.4,134.4,668,134.9,669.8,134.9z"/>
	<path class="st1" d="M705.3,115.7c0-4.8,0.5-9.2,1.6-13.2s2.6-7.4,4.7-10.3c2.1-2.9,4.6-5.1,7.7-6.6c3.1-1.6,6.6-2.3,10.7-2.3
		c3,0,5.7,0.6,8,1.8s4.4,2.8,6.3,4.9V57.8h19.8v90h-17.8l-1-6.8c-1.9,2.5-4.1,4.4-6.6,5.8c-2.5,1.4-5.5,2.1-8.8,2.1
		c-4,0-7.6-0.8-10.6-2.4s-5.6-3.9-7.7-6.7c-2.1-2.9-3.6-6.2-4.7-10.2c-1.1-3.9-1.6-8.2-1.6-12.8V115.7z M725,116.9
		c0,2.4,0.2,4.6,0.5,6.7c0.3,2.1,0.8,3.8,1.6,5.4c0.8,1.5,1.8,2.7,3,3.6c1.3,0.9,2.8,1.3,4.7,1.3c2.2,0,4.1-0.5,5.7-1.4
		c1.6-1,2.8-2.3,3.7-4.1v-24.1c-1.8-3.8-4.9-5.6-9.3-5.6c-1.8,0-3.4,0.4-4.7,1.3c-1.3,0.9-2.3,2.1-3.1,3.6c-0.8,1.5-1.3,3.4-1.7,5.4
		c-0.4,2.1-0.5,4.4-0.5,6.8V116.9z"/>
	<path class="st1" d="M803.5,149c-5.2,0-9.8-0.8-13.8-2.5c-4.1-1.6-7.5-3.9-10.3-6.7c-2.8-2.8-4.9-6.1-6.4-9.8
		c-1.5-3.7-2.2-7.7-2.2-11.8V116c0-4.6,0.6-8.9,1.9-12.9c1.3-4,3.2-7.5,5.7-10.4c2.6-2.9,5.7-5.2,9.6-6.9c3.8-1.7,8.3-2.5,13.3-2.5
		c4.5,0,8.5,0.7,12.1,2.2c3.6,1.4,6.6,3.5,9.1,6.2c2.5,2.7,4.4,6,5.7,9.8c1.3,3.8,2,8.1,2,12.9v8H791c0.7,3.6,2.2,6.3,4.6,8.4
		c2.4,2,5.5,3,9.3,3c2.7,0,5.3-0.5,7.9-1.5c2.6-1,4.8-2.7,6.7-5l9,10.7c-1,1.4-2.3,2.8-3.9,4.1c-1.6,1.3-3.4,2.5-5.5,3.5
		c-2.1,1-4.5,1.9-7.1,2.5C809.4,148.7,806.6,149,803.5,149z M801.3,98.5c-1.7,0-3.1,0.3-4.3,0.9c-1.2,0.6-2.2,1.4-3,2.4
		c-0.8,1-1.4,2.2-1.9,3.6s-0.8,2.9-1.1,4.6h19.9v-1.5c0.1-3.2-0.7-5.6-2.4-7.4C806.8,99.4,804.4,98.5,801.3,98.5z"/>
	<path class="st1" d="M874.2,102.3c-0.4,0-0.9-0.1-1.4-0.1c-0.6-0.1-1.2-0.1-1.8-0.1c-0.6,0-1.2-0.1-1.8-0.1c-0.6,0-1.1-0.1-1.5-0.1
		c-3.2,0-5.7,0.5-7.7,1.4c-2,1-3.4,2.4-4.3,4.4v40.1H836V84.4h18.5l0.6,8.1c1.6-2.9,3.5-5.2,5.8-6.9c2.3-1.6,5-2.5,8.1-2.5
		c1,0,1.9,0.1,2.9,0.2c1,0.1,1.8,0.3,2.6,0.5L874.2,102.3z"/>
</g>
<g>
	<polygon class="st2" points="144.5,108.9 97.8,105.2 92.7,51.2 142.3,56.7 	"/>
	<path class="st1" d="M114.7,23.5L61,77.3l69.3,69.3L184,92.8L114.7,23.5z M110.6,91.1c-2.7,2.7-7.1,2.7-9.8,0
		c-2.7-2.7-2.7-7.1,0-9.8c2.7-2.7,7.1-2.7,9.8,0C113.3,84,113.3,88.4,110.6,91.1z M117.2,64.8c2.7-2.7,7.1-2.7,9.8,0
		c2.7,2.7,2.7,7.1,0,9.8c-2.7,2.7-7.1,2.7-9.8,0C114.5,71.9,114.5,67.5,117.2,64.8z M138.5,91.8c-0.3,0.4-0.6,0.8-0.9,1.2
		c-0.2,0.3-0.4,0.5-0.6,0.7l-0.6,0.7c-0.4,0.5-0.9,0.9-1.3,1.4c-1.8,1.8-3.7,3.5-5.8,4.9c-2.1,1.4-4.4,2.5-6.7,3.3
		c-2.3,0.8-4.7,1.3-7.1,1.6l0-0.3c2.3-0.6,4.6-1.4,6.7-2.4c2.1-1,4.2-2.3,6-3.7c1.8-1.5,3.5-3.1,5-4.9c0.3-0.5,0.7-0.9,1-1.4
		l0.5-0.7c0.2-0.2,0.3-0.5,0.5-0.7c0.1-0.2,0.2-0.4,0.4-0.6l-1.6-0.6l8.5-11.6l-1.8,13.9L138.5,91.8z"/>
	<polygon class="st0" points="99.8,34.2 91.7,26.2 39.3,78.5 107.2,146.4 116.6,137.1 56.7,77.3 	"/>
</g>
</svg>
