<svg id="Camada_1" data-name="Camada 1" xmlns="http://www.w3.org/2000/svg" viewBox="0 0 626.15 606.16"><defs><style>.cls-1{fill:#545456;}.cls-2{fill:#42cfc9;}.cls-3{fill:#43cfc9;}.cls-4{fill:#e5d1a6;}.cls-5{fill:#b03254;}.cls-6{fill:#cccdd0;}.cls-7{fill:#d3b37b;}.cls-8{fill:#030803;}.cls-9{fill:#5f5d5e;}.cls-10{fill:#f6ead6;}.cls-11{fill:#fdfdfd;}.cls-12{fill:#b23253;}</style></defs><title>social-media-marketing-strategy_23-2147495335</title><path class="cls-1" d="M576.07,605.88C565.44,591,554.85,576,544.17,561.17q-23.6-32.85-47.3-65.63c-1-1.34-1.69-2.92-3.45-3.46,0-2.19-1.69-3.48-2.93-4.94-4.78-5.61-7.46-11.87-6.39-19.39,2.33,1.34,3.05,3.85,4.23,6,3.9,7.08,3.89,7.26,11.71,6,31.43-5,56.88-19.43,74.22-46.79,4.64-7.31,9.87-14.46,2.77-23.13,4.48.53,6,4.25,7.89,7.48q19.59,33.87,39.09,67.8a28.19,28.19,0,0,0,2,2.75c0,38.17,0,76.33.08,114.5,0,3-.6,3.62-3.59,3.59C607.07,605.78,591.57,605.88,576.07,605.88Z" transform="translate(0 0.19)"/><path class="cls-1" d="M104,510.92c-.43,4.91-3,8.65-6.33,12.08q-39.12,40.18-78.18,80.43c-.68.7-1.59,1.26-1.42,2.45-5,0-10-.16-15,.07-2.52.11-3.08-.57-3.07-3.07.11-25.5.07-51,.07-76.5v-48.5q15.49-15.77,31-31.54c2.47-2.52,5-5,8.94-4.37-7.61,5.77-6.41,12.75-3.72,20.71,8.95,26.45,27,44,52.14,54.94,4.07,1.77,7.18,2.59,10.1-1.79A12.57,12.57,0,0,1,104,510.92Z" transform="translate(0 0.19)"/><path class="cls-2" d="M63.92,404.91c-3.69-3.6-5.21-8.48-7.2-13a260.62,260.62,0,0,1-18.13-57.36,351.36,351.36,0,0,1-4.86-38.44c-1-13.86-.45-27.6.56-41.3a257,257,0,0,1,9.4-51.28,277.75,277.75,0,0,1,39.85-83.76A282.57,282.57,0,0,1,135.2,64,276.79,276.79,0,0,1,281.45,1.71,287.74,287.74,0,0,1,324.24,0a276.79,276.79,0,0,1,64.2,10.14,280.62,280.62,0,0,1,69.74,30.35c3.39,2.05,6.63,4.35,9.94,6.54-8.13,4.77-16.26,9.51-24.36,14.33-.93.55-2.84.38-2.61,1.77.18,1.1,1.51,1.95,2.76,2.58q9,4.58,17.82,9.4c6.25,3.42,6.22,3.48,2.6,9.89-1.69,3-3.36,6-5.1,8.94-13.86,23.68-27.52,47.48-41.77,70.92-3.5,5.76-5.61,12.55-11.1,17.06-2.16-.09-4.32-.26-6.48-.26q-91.4,0-182.79,0c-4.65,0-9.31.15-14,.23-9.48-.07-19-.2-28.45-.21-21.86,0-36.17,14.35-36.22,36.29q-.08,41.19-.17,82.39c-4.9,6-11.07,10.9-15.25,17.53q-18.43,18.51-36.86,37A75.11,75.11,0,0,0,63.92,404.91Z" transform="translate(0 0.19)"/><path class="cls-3" d="M515.82,88.26A263.09,263.09,0,0,1,551,135.07c16.27,27.52,28,56.81,34.11,88.25,2.48,12.84,3.76,25.83,4.9,38.89,1.22,14,.63,28-.63,41.76-2,22.29-6.3,44.29-14.16,65.41-3.12,8.39-6.36,16.74-9.54,25.11-3.47.33-6.19-3-9.78-2-.13-2.14-.23-4.28-.39-6.41-.49-6.32,1.1-12.74-.84-19-.65-10.89-2.8-21.31-7.89-31.17-10.62-20.59-20.9-41.35-31.15-62.12-4-8.09-9.48-13.73-19.11-13.87,2.33-.35,2.09-2.1,2.08-3.79,0-14.15.17-28.29-.11-42.43a34,34,0,0,0-24.07-32c-9.84-3.13-20.12-1.64-30.21-2.16-1.9-.1-4.05.74-5.58-1.2,1.09-.75.86-2.09,1.38-3.08q20.39-38.55,40.84-77.07c5.28-9.93,5.21-9.6,15.34-4.48,5.76,2.91,10.89,7.17,17.37,8.61l1.36-.19C516.15,97.51,515,92.82,515.82,88.26Z" transform="translate(0 0.19)"/><path class="cls-4" d="M63.92,404.91a75.11,75.11,0,0,1,22.27-50q18.37-18.57,36.86-37a80.08,80.08,0,0,0,15.7,7.11c2.57.9,4.12.24,5.27-2a51.52,51.52,0,0,0,2.38-4.91c2.89-7.56.32-15.79-5.67-18.44,6.23-4.48,11.88-2.78,17.29,1.6a46.78,46.78,0,0,1,5.61,11.59c2.46,14.48-1.65,26.65-12.36,36.82-4.65,4.41-9.5,8.71-13.09,14.14-5.43,2.31-8.28,7.39-12.16,11.35-2.1,2.15-1.75,3.35.82,5.33,18.11,13.93,28.93,42.7,14.36,63.79-.44.63-1.32,1.33-.37,2.07.29.22,1.28-.1,1.69-.46a42.14,42.14,0,0,0,9.83-12.17c2.09-4,.28-8.63,3.19-12.13,6.82,3.42,14,4.57,21.65,4.43,11.6-.22,23.2,0,34.8.09a12.6,12.6,0,0,1-.74,4.37,85.92,85.92,0,0,1-18.67,30.38c-14,14.56-31.1,21.3-50.73,22.94-6,.51-11.88-.63-17.74-1.81-3.67.24-6.72-1.75-9.94-3-22.92-8.64-38.95-24-46.23-47.82-.58-1.89-1.08-3.94-3.55-4.32Z" transform="translate(0 0.19)"/><path class="cls-5" d="M515.93,103.67c-6.49-1.44-11.61-5.7-17.37-8.61-10.14-5.11-10.06-5.45-15.34,4.48q-20.48,38.5-40.84,77.07c-.52,1-.29,2.33-1.38,3.09l-.21-.95c-1.46.69-.46,2-.74,3l-9.92,19.07a3.39,3.39,0,0,0-.07,1c-2.92,2.65-3.93,6.45-5.76,9.75-7.86,14.19-14.58,29-23,42.86-1.79-3.54-3.51-7.11-5.37-10.61-3.17-6-7.91-9.67-14.87-10.08-1.15-.07-2.34,0-3.25-.93l17.6-30.95c1.31-2,3.11-3.93,3.82-6.17,1.6-5,6.24-8.39,7.14-13.72,5.49-4.5,7.6-11.29,11.1-17.05,14.24-23.44,27.9-47.24,41.77-70.92,1.73-3,3.41-6,5.1-8.94,3.62-6.41,3.65-6.47-2.6-9.89q-8.84-4.84-17.82-9.4c-1.24-.64-2.58-1.48-2.76-2.58-.22-1.39,1.68-1.22,2.61-1.77C451.86,56.54,460,51.8,468.12,47q21.48-12.11,43-24.2a20.78,20.78,0,0,1,2.25-.95c3.2-.25,2.79,2,2.78,4Q516,64.77,515.93,103.67Z" transform="translate(0 0.19)"/><path class="cls-6" d="M558.26,393.88c3.6-.93,6.31,2.37,9.78,2,2.48,4.61,6.54,8.25,8.22,13.35l.83.65-.07-.07c7.1,8.67,1.87,15.81-2.77,23.13-17.34,27.36-42.8,41.84-74.22,46.79-7.82,1.23-7.81,1-11.71-6-1.18-2.14-1.9-4.64-4.23-6v.16a2.25,2.25,0,0,0-.08-.57c-2.34-5.59-5.37-11-3.9-17.47,2.63.65,2.27,3.66,4,5,.59.78,1.53,1.49,1.71,2.36,1,4.62,4.49,5.53,8,4.39,7.62-2.46,15.66-2.81,23.21-5.81,20.7-8.25,36.79-21.62,48-40.88,1.87-3.2,2-6.06,0-9.23C562.67,401.87,560.52,397.85,558.26,393.88Z" transform="translate(0 0.19)"/><path class="cls-6" d="M104,510.92a12.57,12.57,0,0,0-5.5,4.91c-2.92,4.39-6,3.57-10.1,1.79-25.18-11-43.19-28.49-52.14-54.94-2.69-8-3.89-14.94,3.72-20.71,4.11-6.06,8.87-11,17.14-9.75-1.4,3.72-4.44,6.14-7.18,8.71-2.94,2.75-3.6,5.7-2.19,9.41a147.22,147.22,0,0,0,9.59,19.84C66.82,487,82.1,496.89,99,504.76c1,.47,1.92.69,2.15-.84,1.94.3,3-1.12,4.11-2.25,2.27-2.24,4.48-4.53,6.72-6.8C112.93,502,108.55,506.51,104,510.92Z" transform="translate(0 0.19)"/><path class="cls-7" d="M101.17,503.92c-.23,1.53-1.14,1.31-2.15.84C82.1,496.89,66.82,487,57.35,470.19a147.22,147.22,0,0,1-9.59-19.84c-1.41-3.72-.75-6.66,2.19-9.41,2.75-2.57,5.78-5,7.18-8.71,3.29-.62,4.74-3.72,7.26-5.38,2.47.38,3,2.43,3.55,4.32C75.21,455,91.24,470.35,114.16,479c3.22,1.21,6.27,3.2,9.94,3l-.45,1.92a3.8,3.8,0,0,0-3.47,1c-15.95-1.37-30.21-6.48-42.36-17.44-4.47-4-7.87-8.95-12.44-12.81-1.69-1.43-3.38-2.19-5.44-1.47-2.25.79-1.83,2.88-1.9,4.67a13.61,13.61,0,0,0,.79,4.88c2.71,8.21,7.73,14.87,13.72,20.94C80.9,492.1,90.9,498.2,101.17,503.92Z" transform="translate(0 0.19)"/><path class="cls-6" d="M518.06,25.48" transform="translate(0 0.19)"/><path class="cls-1" d="M577.1,409.93l-.83-.65Z" transform="translate(0 0.19)"/><path class="cls-3" d="M123.65,483.87l.45-1.92c5.85,1.18,11.7,2.31,17.74,1.81,19.63-1.64,36.69-8.38,50.73-22.94a85.92,85.92,0,0,0,18.67-30.38,12.61,12.61,0,0,0,.74-4.37c1.66-.06,3.33-.17,5-.17q74.47,0,148.93,0,44.48,0,89-.1c2.75,1.46,5.43,3.07,8.26,4.34,8.76,4,14.32,10.59,17,19.74-1.46,6.44,1.56,11.88,3.9,17.47-.19.17-.16.37.08.58v-.16c-1.07,7.52,1.61,13.78,6.39,19.39,1.24,1.46,2.88,2.75,2.93,4.94-4.72,6.36-11.29,10.72-17.59,15.13a282,282,0,0,1-118.18,48.7A329.26,329.26,0,0,1,324,559c-35.6,2-70.05-3.71-103.56-15.28a260.43,260.43,0,0,1-66.23-34c-9.46-6.73-18.85-13.53-27.34-21.49C125.55,487,124.16,485.74,123.65,483.87Z" transform="translate(0 0.19)"/><path class="cls-4" d="M101.17,503.92C90.9,498.2,80.9,492.1,72.55,483.64c-6-6.06-11-12.72-13.72-20.94a13.61,13.61,0,0,1-.79-4.88c.07-1.8-.35-3.88,1.9-4.67,2.06-.72,3.75,0,5.44,1.47,4.57,3.86,8,8.78,12.44,12.81,12.15,11,26.41,16.08,42.36,17.44l.49.08c.48.1.6.38.24.72-3.08,2.95-7.65,4.46-8.9,9.19-2.24,2.27-4.45,4.56-6.72,6.8C104.15,502.8,103.12,504.22,101.17,503.92Z" transform="translate(0 0.19)"/><path class="cls-8" d="M454.86,425.79q-44.48.05-89,.1-74.47,0-148.93,0c-1.66,0-3.33.11-5,.17-11.6-.05-23.21-.31-34.8-.09-7.62.15-14.83-1-21.65-4.43a8.43,8.43,0,0,1-.54-1.9c-.58-12.82-5.28-23.8-14.71-32.59-1.72-1.6-1.61-3.48-1.68-5.45-.21-5.94.51-11.9-.42-17.82,3.59-5.43,8.45-9.73,13.09-14.14,10.71-10.16,14.83-22.33,12.36-36.82a27.39,27.39,0,0,0,4.48-.1c4.37-.8,7.25-3.38,7.85-7.85.58-4.3-1.58-7.31-5.32-9.26-4-2.07-10.53-.1-12.61,5.63-5.41-4.37-11.07-6.08-17.29-1.6l-2.43.72q.08-41.19.17-82.39c0-21.94,14.36-36.31,36.22-36.29,9.48,0,19,.14,28.45.21,8,5.86,17.11,9.72,25.52,14.82,2.28,1.38,5.38,1.81,6.31,4.95-12.8,0-25.61.27-38.41,0-4.48-.1-5.79,1-5.78,5.67.17,57.54.11,115.09.12,172.63,0,2.32.13,4.65.2,7-1.76,5.35-.75,10.85-.85,16.29,0,2.48,1.82,2.85,3.8,2.84l52.73-.23,1.22-.12c8.48,0,17,.08,25.44.08l150.68-.11a11.63,11.63,0,0,1,6.19,2.61c4.3,3.31,8.48,6.83,13.57,8.95Z" transform="translate(0 0.19)"/><path class="cls-9" d="M235,201.66c-.93-3.13-4-3.56-6.31-4.95-8.41-5.1-17.55-9-25.52-14.82,4.65-.08,9.31-.23,14-.23q91.4,0,182.79,0c2.16,0,4.32.17,6.48.26-.89,5.33-5.54,8.69-7.14,13.72-.71,2.23-2.51,4.12-3.82,6.17l-52.49,0Z" transform="translate(0 0.19)"/><path class="cls-10" d="M138.29,300.35l2.43-.72c6,2.65,8.56,10.88,5.67,18.44A51.52,51.52,0,0,1,144,323c-1.14,2.24-2.7,2.9-5.27,2a80.08,80.08,0,0,1-15.7-7.11C127.22,311.25,133.4,306.36,138.29,300.35Z" transform="translate(0 0.19)"/><path class="cls-4" d="M454.86,425.79l-11-8.57a6.06,6.06,0,0,0-.82-4.29c-3.13-6.16-6-12.47-9.38-18.5q-14-24.94-26.17-50.8c-4.05-8.62-8.61-15.18-19.49-12.77,2.2-1.73,4.79-1,7.18-.91,3.29.09,4.27-.63,2.52-3.84q-4.51-8.24-8.61-16.69c-3.68-7.51-8.62-14.39-11.19-22.45,1.17-3.48-3.48-2.43-3.69-4.7-.45-4.91-3.38-8.54-6.07-12.32-1.91-4-3.85-8-5.72-12-2-4.18-2.91-8.76-1-12.92,2.17-4.62-.5-4.27-3.37-4.33,3-1.25,6.45-.93,9-3.39,2.95-2.83,6.74-3.91,10.68-4.54.91.91,2.11.86,3.25.93,7,.42,11.7,4.13,14.87,10.08,1.86,3.5,3.58,7.07,5.37,10.61,1.16,2.91.74,6.86,5.07,7.68a6.41,6.41,0,0,0,.46,4.34c2.92,5.76,5.77,11.57,8.67,17.34.51,1,1,2.18,2.47,2-.84,2.53-.26,4.75,1.07,7,3.33,5.7,6.45,11.52,9.69,17.28.69,1.24,1.33,3.47,2.81,2.81,1.31-.58-.3-2.31-.73-3.48a78.46,78.46,0,0,0-5.27-11.71c-2.41-4.23-3-9.6-7.34-12.71a12.58,12.58,0,0,1,5.89-7.1c8.14-5,16.11-3.65,23.84,1,1.62,1,2.84,2.71,4.08-.28,3.55-8.57,10.32-11.5,19.13-10.76a17.16,17.16,0,0,1,10,4c1.74,6.89,7,11.83,10.11,17.94.15.29,1,.57,1.19.43a1.58,1.58,0,0,0,.1-2.24c-3.68-5.31-5-11.77-8.52-17.16,2.67-6.76,8.24-9,14.89-9.53,9.63.14,15.11,5.78,19.1,13.87,10.25,20.77,20.53,41.53,31.15,62.12,5.09,9.87,7.24,20.28,7.89,31.17,0,8.63-.09,17.27.08,25.9.4,19.72-9.72,33.87-24.2,45.56-14.2,11.46-31.14,14.53-48.8,15-1.71-1.38-1.34-4.39-4-5-2.69-9.15-8.25-15.78-17-19.74C460.29,428.85,457.61,427.25,454.86,425.79Zm-5.8-143.9-.41-.22.42.21c2.76,8.45,8.88,15,13,22.68.19.35.93.81,1.11.71,1-.6.38-1.46.05-2.12-3.26-6.54-6.59-13-9.83-19.58C452.41,281.61,450.66,282,449.06,281.89Zm-70-46c-12.37,0-18.61,10.44-12.59,21.11a13.46,13.46,0,0,1,1.46,3.15c.74,2.89,2.93,3.26,5.06,2.49,6.69-2.42,13.61-4.46,19-9.43a4.58,4.58,0,0,0,1.64-2.34C394.38,244.9,385.52,235.9,379.1,235.88Z" transform="translate(0 0.19)"/><path class="cls-9" d="M481.11,271.87a17.16,17.16,0,0,0-10-4c0-20.46-.12-40.93,0-61.39,0-3.75-1.05-4.81-4.78-4.77-7.46.08-14.95.59-22.4-.32,1.57-5.31,5.19-9.52,7.67-14.34.74-1.44,2.65-2.83,1.86-4.34-1-1.87-3.3-.71-5-.82-2.81-.19-5.65-.1-8.47-.12.28-1-.73-2.28.74-3l.21.95c1.52,1.94,3.67,1.1,5.58,1.2,10.09.51,20.37-1,30.21,2.16a34,34,0,0,1,24.07,32c.28,14.14.08,28.29.11,42.43,0,1.68.25,3.43-2.08,3.79-6.64.54-12.21,2.77-14.88,9.53A3.48,3.48,0,0,1,481.11,271.87Z" transform="translate(0 0.19)"/><path class="cls-7" d="M484.11,454.91c17.66-.45,34.6-3.52,48.8-15,14.48-11.69,24.61-25.84,24.2-45.56-.18-8.63-.06-17.27-.08-25.9,1.94,6.27.35,12.68.84,19,.16,2.13.26,4.27.39,6.41,2.26,4,4.41,8,6.81,11.86,2,3.17,1.86,6,0,9.23-11.25,19.25-27.34,32.63-48,40.88-7.55,3-15.59,3.35-23.21,5.81-3.5,1.13-7,.23-8-4.39C485.63,456.4,484.7,455.69,484.11,454.91Z" transform="translate(0 0.19)"/><path class="cls-7" d="M138.17,363.78c.93,5.92.21,11.88.42,17.82.07,2,0,3.85,1.68,5.45,9.43,8.8,14.13,19.77,14.71,32.59a8.43,8.43,0,0,0,.54,1.9c-2.91,3.5-1.11,8.13-3.19,12.13a42.14,42.14,0,0,1-9.83,12.17c-.41.36-1.4.68-1.69.46-1-.74-.07-1.44.37-2.07,14.57-21.08,3.74-49.85-14.36-63.79-2.56-2-2.92-3.18-.82-5.33C129.9,371.16,132.74,366.08,138.17,363.78Z" transform="translate(0 0.19)"/><path class="cls-9" d="M158,301.23c2.08-5.73,8.63-7.7,12.61-5.63,3.74,1.95,5.9,5,5.32,9.26-.6,4.47-3.48,7.05-7.85,7.85a27.39,27.39,0,0,1-4.48.1A46.78,46.78,0,0,0,158,301.23Z" transform="translate(0 0.19)"/><path class="cls-11" d="M377.81,232.75c-3.94.62-7.73,1.71-10.68,4.54-2.56,2.46-6.06,2.14-9,3.39-26.59,3.38-53.17,6.83-79.79,10-3.51.42-5.64,1.63-7.47,4.68q-24.12,40.29-48.51,80.42c-10.35,17.07-20.83,34.07-31.26,51.09-.07-2.32-.2-4.65-.2-7,0-57.54,0-115.09-.12-172.63,0-4.66,1.3-5.76,5.78-5.67,12.8.28,25.61,0,38.41,0l107.94.11,52.49,0Z" transform="translate(0 0.19)"/><path class="cls-6" d="M406.37,262.05c-4.33-.82-3.91-4.78-5.07-7.68,8.43-13.88,15.15-28.67,23-42.86,1.83-3.3,2.84-7.1,5.76-9.75l2.14-.28c3.29.3,6.62-.46,9.88.47-.17,2.44-1.65,4.34-2.81,6.31C430.59,223,421.88,237.72,413,252.34,411,255.68,410,259.82,406.37,262.05Z" transform="translate(0 0.19)"/><path class="cls-8" d="M442.08,201.94c-3.26-.93-6.59-.17-9.88-.47l-2.07-.68,9.92-19.07c2.82,0,5.66-.06,8.47.12,1.71.12,4-1.05,5,.82.79,1.52-1.12,2.91-1.86,4.34-2.48,4.82-6.09,9-7.67,14.34Z" transform="translate(0 0.19)"/><path class="cls-9" d="M430.14,200.79l2.07.68-2.14.28A3.4,3.4,0,0,1,430.14,200.79Z" transform="translate(0 0.19)"/><path class="cls-1" d="M484.11,467.92c-.24-.21-.26-.4-.08-.58A2.23,2.23,0,0,1,484.11,467.92Z" transform="translate(0 0.19)"/><path class="cls-11" d="M377.92,287c2.58,8.06,7.52,14.94,11.2,22.45q4.13,8.43,8.61,16.69c1.75,3.21.77,3.93-2.52,3.84-2.39-.07-5-.82-7.18.91-12.53,3.55-13.16,13.28-6.72,20.79,3.78,4.41,7.26,9.07,11,13.46,10.61,12.32,19.12,26.37,31.05,37.59.91.85,1.54,1.71.7,3l-150.68.11c-8.48,0-17,0-25.44-.08l-.88-.67c1.48-4.66,3.94-8.85,6.13-13.18l.59-1.09,0-.07c1.35-.48,1.33-1.59,1.26-2.73v0l.62-1.23,0-.06c1.46-.42,1.35-1.58,1.29-2.72v0l.68-1.29.69-1.61.59-1.11h0c2.8-2.06,4-5.23,5.5-8.13,13-24.71,26.12-49.4,39-74.18,1.71-3.3,4.07-4.3,7.44-4.72,17.25-2.15,34.46-4.65,51.73-6.61C367.72,285.68,373.09,282.44,377.92,287Z" transform="translate(0 0.19)"/><path class="cls-12" d="M258.48,381l-.69,1.61-.68,1.29v0c-1.13.57-1.2,1.65-1.29,2.72l0,.06-.62,1.23v0a2.83,2.83,0,0,0-1.26,2.73l0,.07-.59,1.09c-2.19,4.32-4.65,8.52-6.13,13.17a1.38,1.38,0,0,0-.33.8l-52.73.23c-2,0-3.85-.36-3.8-2.84.1-5.44-.91-10.94.85-16.29,10.42-17,20.9-34,31.26-51.09q24.35-40.15,48.51-80.42c1.82-3,4-4.26,7.47-4.68,26.61-3.21,53.19-6.66,79.79-10,2.87.06,5.54-.3,3.37,4.33-2,4.16-1,8.74,1,12.92,1.88,4,3.81,8,5.72,12-19.52,3-39,6-58.58,8.84-2.73.4-4.38,1.28-5.62,4-12,25.9-24.31,51.69-36.31,77.61-3,6.45-6.72,12.59-8.58,19.54h0A.76.76,0,0,0,258.48,381Z" transform="translate(0 0.19)"/><path class="cls-7" d="M424.12,405.66c.84-1.24.2-2.1-.7-3-11.94-11.22-20.45-25.27-31.05-37.59-3.79-4.4-7.27-9.06-11-13.46-6.44-7.51-5.82-17.24,6.72-20.79,10.88-2.41,15.44,4.15,19.49,12.77q12.15,25.86,26.17,50.8c3.38,6,6.24,12.34,9.38,18.5a6.06,6.06,0,0,1,.82,4.29c-5.09-2.12-9.28-5.64-13.57-8.95A11.63,11.63,0,0,0,424.12,405.66Z" transform="translate(0 0.19)"/><path class="cls-7" d="M246.78,405.82a1.38,1.38,0,0,1,.33-.8l.88.67Z" transform="translate(0 0.19)"/><path class="cls-11" d="M442.08,201.94l1.92-.59c7.45.91,14.94.4,22.4.32,3.72,0,4.81,1,4.78,4.77-.16,20.46-.06,40.92,0,61.39-8.81-.74-15.57,2.19-19.13,10.76-1.24,3-2.47,1.25-4.08.28-7.73-4.65-15.7-6-23.84-1a12.59,12.59,0,0,0-5.89,7.1,4.57,4.57,0,0,0-.22.79c-1.5.15-2-1-2.47-2-2.9-5.78-5.74-11.58-8.67-17.34a6.41,6.41,0,0,1-.46-4.34c3.67-2.23,4.61-6.37,6.64-9.71,8.87-14.62,17.59-29.35,26.26-44.09C440.43,206.29,441.91,204.39,442.08,201.94Z" transform="translate(0 0.19)"/><path class="cls-6" d="M259.07,379.89c1.86-7,5.59-13.09,8.58-19.54,12-25.91,24.28-51.7,36.31-77.61,1.24-2.67,2.89-3.55,5.62-4,19.54-2.86,39.05-5.88,58.58-8.84,2.69,3.78,5.62,7.41,6.07,12.32.21,2.27,4.86,1.22,3.69,4.7-4.83-4.52-10.2-1.29-15.18-.73-17.27,2-34.48,4.46-51.73,6.61-3.37.42-5.72,1.43-7.44,4.72-12.89,24.79-26,49.48-39,74.18C263,374.66,261.87,377.83,259.07,379.89Z" transform="translate(0 0.19)"/><path class="cls-10" d="M379.1,235.88c6.42,0,15.28,9,14.6,15a4.58,4.58,0,0,1-1.64,2.34c-5.43,5-12.35,7-19,9.43-2.13.77-4.32.39-5.06-2.49a13.46,13.46,0,0,0-1.46-3.15C360.49,246.32,366.73,235.84,379.1,235.88Z" transform="translate(0 0.19)"/><path class="cls-7" d="M418,285.77a4.57,4.57,0,0,1,.22-.79c4.31,3.12,4.94,8.48,7.34,12.72a78.46,78.46,0,0,1,5.27,11.71c.43,1.17,2,2.89.73,3.48-1.48.66-2.11-1.57-2.81-2.81-3.23-5.76-6.36-11.58-9.69-17.28C417.71,290.52,417.13,288.3,418,285.77Z" transform="translate(0 0.19)"/><path class="cls-7" d="M449.06,281.89c1.6.13,3.35-.28,4.32,1.68,3.24,6.54,6.57,13,9.83,19.58.33.66.95,1.51-.05,2.12-.17.1-.92-.35-1.11-.71-4.1-7.69-10.22-14.23-13-22.68Z" transform="translate(0 0.19)"/><path class="cls-7" d="M481.11,271.87a3.48,3.48,0,0,0,2.89-1c3.5,5.39,4.84,11.85,8.52,17.16a1.58,1.58,0,0,1-.1,2.24c-.17.15-1-.14-1.19-.43C488.07,283.71,482.85,278.77,481.11,271.87Z" transform="translate(0 0.19)"/><path class="cls-7" d="M449.07,281.88l-.42-.21.41.22Z" transform="translate(0 0.19)"/><path class="cls-6" d="M253.87,390.69a2.83,2.83,0,0,1,1.26-2.73C255.21,389.09,255.22,390.21,253.87,390.69Z" transform="translate(0 0.19)"/><path class="cls-6" d="M255.8,386.64c.09-1.07.17-2.14,1.29-2.72C257.15,385.06,257.26,386.22,255.8,386.64Z" transform="translate(0 0.19)"/><path class="cls-6" d="M253.25,391.85l.59-1.09Z" transform="translate(0 0.19)"/><path class="cls-6" d="M255.15,387.93l.62-1.23Z" transform="translate(0 0.19)"/><path class="cls-6" d="M257.11,383.9l.68-1.29Z" transform="translate(0 0.19)"/><path class="cls-6" d="M258.48,381a.76.76,0,0,1,.59-1.11Z" transform="translate(0 0.19)"/></svg>